HIERARCHY
ROOT joint_0
{
	OFFSET 0.000000 0.000000 0.000000
	CHANNELS 6 Xposition Yposition Zposition Zrotation Yrotation Xrotation 
	JOINT joint_1
	{
		OFFSET 5.091736 1.614004 124.993042
		CHANNELS 3 Zrotation Yrotation Xrotation
		JOINT joint_2
		{
			OFFSET -7.754517 4.363039 113.797974
			CHANNELS 3 Zrotation Yrotation Xrotation
			JOINT joint_3
			{
				OFFSET -8.706238 5.370684 113.558960
				CHANNELS 3 Zrotation Yrotation Xrotation
				JOINT joint_4
				{
					OFFSET 2.800659 5.843341 158.209106
					CHANNELS 3 Zrotation Yrotation Xrotation
					JOINT joint_5
					{
						OFFSET 20.525452 8.617594 92.185913
						CHANNELS 3 Zrotation Yrotation Xrotation
						End Site
						{
							OFFSET 0.000000 0.000000 0.000000
						}
					}
				}
				JOINT joint_6
				{
					OFFSET -4.183167 -30.671114 90.057007
					CHANNELS 3 Zrotation Yrotation Xrotation
					JOINT joint_7
					{
						OFFSET -24.729675 -138.200195 -6.097900
						CHANNELS 3 Zrotation Yrotation Xrotation
						JOINT joint_8
						{
							OFFSET 16.966858 -51.567780 -315.633057
							CHANNELS 3 Zrotation Yrotation Xrotation
							JOINT joint_9
							{
								OFFSET 129.835388 -40.459091 176.646973
								CHANNELS 3 Zrotation Yrotation Xrotation
								End Site
								{
									OFFSET 0.000000 0.000000 0.000000
								}
							}
						}
					}
				}
				JOINT joint_10
				{
					OFFSET 7.338745 37.199406 87.346069
					CHANNELS 3 Zrotation Yrotation Xrotation
					JOINT joint_11
					{
						OFFSET 20.327698 137.488367 -20.779053
						CHANNELS 3 Zrotation Yrotation Xrotation
						JOINT joint_12
						{
							OFFSET 150.763062 48.206573 -278.419922
							CHANNELS 3 Zrotation Yrotation Xrotation
							JOINT joint_13
							{
								OFFSET 12.571289 -162.355251 152.253906
								CHANNELS 3 Zrotation Yrotation Xrotation
								End Site
								{
									OFFSET 0.000000 0.000000 0.000000
								}
							}
						}
					}
				}
			}
		}
	}
	JOINT joint_14
	{
		OFFSET -7.600342 -77.970001 -95.010986
		CHANNELS 3 Zrotation Yrotation Xrotation
		JOINT joint_15
		{
			OFFSET -2.666199 -21.455009 -443.700989
			CHANNELS 3 Zrotation Yrotation Xrotation
			JOINT joint_16
			{
				OFFSET -22.487976 -19.310196 -481.059006
				CHANNELS 3 Zrotation Yrotation Xrotation
				JOINT joint_17
				{
					OFFSET 177.776611 65.723053 -82.445997
					CHANNELS 3 Zrotation Yrotation Xrotation
					End Site
					{
						OFFSET 0.000000 0.000000 0.000000
					}
				}
			}
		}
	}
	JOINT joint_18
	{
		OFFSET 17.063904 75.900681 -95.447021
		CHANNELS 3 Zrotation Yrotation Xrotation
		JOINT joint_19
		{
			OFFSET -21.510803 8.101997 -443.629944
			CHANNELS 3 Zrotation Yrotation Xrotation
			JOINT joint_20
			{
				OFFSET -7.473022 -28.501774 -481.230011
				CHANNELS 3 Zrotation Yrotation Xrotation
				JOINT joint_21
				{
					OFFSET 177.760559 -64.115177 -83.737001
					CHANNELS 3 Zrotation Yrotation Xrotation
					End Site
					{
						OFFSET 0.000000 0.000000 0.000000
					}
				}
			}
		}
	}
}
MOTION
Frames: 8
Frame Time: 0.016667
1390.420532 -1.545055 1121.323975 14.929066 2.593433 1.456242 0.485180 2.962568 2.537795 0.534962 -0.318193 -0.476844 0.564360 0.808042 0.449085 -1.079538 2.325117 3.624310 0.000000 0.000000 0.000000 1.573064 -3.411072 5.681009 13.753483 -1.353706 -5.272692 -179.595637 38.507235 177.406731 0.000000 0.000000 0.000000 -7.766391 14.931365 -5.009879 -18.829366 2.493370 3.534052 53.924221 -19.494594 113.251289 0.000000 0.000000 0.000000 -7.260608 -1.636548 -3.347641 -7.305744 -0.262017 -0.020995 -7.114752 -2.398837 -2.398170 0.000000 0.000000 0.000000 -6.416452 -6.066003 1.490537 -6.337844 3.978484 3.229997 -5.850295 -2.586652 -3.666977 0.000000 0.000000 0.000000 
1392.020874 -1.575276 1121.152954 14.919784 2.221045 1.452548 0.527955 2.845512 2.541301 0.563636 -0.302730 -0.458304 0.592482 0.782795 0.431302 -1.073776 2.480476 3.582657 0.000000 0.000000 0.000000 1.501127 -2.676558 5.535912 14.622223 -1.054118 -4.934097 -178.670482 39.654074 178.456723 0.000000 0.000000 0.000000 -7.700890 14.990041 -5.030556 -18.770219 2.609799 3.441476 54.197988 -19.376074 113.258415 0.000000 0.000000 0.000000 -7.290026 -1.166926 -3.374844 -7.313773 -0.205580 -0.047443 -7.118662 -2.531902 -2.350354 0.000000 0.000000 0.000000 -6.404119 -5.640800 1.446419 -6.330287 4.132400 3.240237 -5.823744 -2.732331 -3.707587 0.000000 0.000000 0.000000 
1393.595459 -1.552463 1121.008057 14.919987 1.875336 1.443434 0.559771 2.699458 2.561297 0.578041 -0.276599 -0.443687 0.608045 0.742838 0.416221 -1.069289 2.662645 3.530946 0.000000 0.000000 0.000000 1.367474 -1.832450 5.354900 15.876546 -0.713279 -4.599848 -177.441026 41.235357 179.971818 0.000000 0.000000 0.000000 -7.578633 15.066927 -5.020529 -18.686315 2.738949 3.287985 54.485018 -19.298404 113.246257 0.000000 0.000000 0.000000 -7.321414 -0.717246 -3.395260 -7.323804 -0.169250 -0.070326 -7.125978 -2.631750 -2.316356 0.000000 0.000000 0.000000 -6.395165 -5.237529 1.409858 -6.326132 4.267070 3.250976 -5.802814 -2.858768 -3.743800 0.000000 0.000000 0.000000 
1395.114624 -1.359725 1120.916992 14.945572 1.579371 1.416485 0.560372 2.479968 2.608117 0.553279 -0.231940 -0.446244 0.589038 0.675155 0.415972 -1.064547 2.875141 3.461930 0.000000 0.000000 0.000000 1.125193 -0.918144 5.150716 17.577037 -0.347399 -4.371934 -175.905652 43.264612 -177.949996 0.000000 0.000000 0.000000 -7.357194 15.174663 -4.964668 -18.522427 2.901469 3.024967 54.835920 -19.280136 113.168759 0.000000 0.000000 0.000000 -7.357639 -0.297955 -3.399383 -7.338139 -0.178274 -0.082215 -7.140380 -2.668824 -2.308832 0.000000 0.000000 0.000000 -6.393073 -4.879181 1.381602 -6.329148 4.375763 3.277394 -5.792450 -2.949337 -3.771923 0.000000 0.000000 0.000000 
1396.631226 -1.052802 1120.860962 14.993831 1.317205 1.375825 0.538932 2.198181 2.677069 0.500799 -0.168606 -0.455122 0.545366 0.581597 0.421716 -1.058431 3.122009 3.369087 0.000000 0.000000 0.000000 0.791129 0.080622 4.957158 19.475067 0.047085 -4.234099 -174.274285 45.756914 -175.225534 0.000000 0.000000 0.000000 -7.057092 15.313416 -4.872311 -18.309042 3.090617 2.679761 55.222348 -19.307511 113.053293 0.000000 0.000000 0.000000 -7.399221 0.104183 -3.389002 -7.357082 -0.221000 -0.088279 -7.161630 -2.656688 -2.322651 0.000000 0.000000 0.000000 -6.397548 -4.547708 1.362551 -6.338899 4.462148 3.312922 -5.791501 -3.014215 -3.795113 0.000000 0.000000 0.000000 
1397.873047 -0.725960 1120.853027 15.019705 1.108276 1.344285 0.507688 1.962311 2.748572 0.443155 -0.116472 -0.467450 0.496110 0.497694 0.431528 -1.058951 3.365094 3.291643 0.000000 0.000000 0.000000 0.466369 1.001761 4.746287 20.974874 0.312677 -4.045529 -173.085339 48.753466 -171.944029 0.000000 0.000000 0.000000 -6.719465 15.430791 -4.725971 -18.023817 3.277440 2.261245 55.640838 -19.382883 112.855268 0.000000 0.000000 0.000000 -7.429047 0.434309 -3.391266 -7.367356 -0.271781 -0.081332 -7.174364 -2.631904 -2.337269 0.000000 0.000000 0.000000 -6.395316 -4.278915 1.341632 -6.341465 4.528951 3.342477 -5.785918 -3.060120 -3.809232 0.000000 0.000000 0.000000 
1398.635742 -0.429614 1120.912964 14.991159 0.965673 1.338759 0.475546 1.861339 2.813365 0.396014 -0.100526 -0.484962 0.454274 0.456893 0.446159 -1.071934 3.577274 3.260673 0.000000 0.000000 0.000000 0.232715 1.735433 4.535875 21.681147 0.383786 -3.728231 -172.662119 52.599874 -168.182231 0.000000 0.000000 0.000000 -6.355652 15.480901 -4.505898 -17.633973 3.441308 1.748706 56.097803 -19.520357 112.524589 0.000000 0.000000 0.000000 -7.434957 0.655355 -3.429062 -7.359311 -0.315230 -0.051264 -7.167337 -2.618467 -2.338700 0.000000 0.000000 0.000000 -6.376816 -4.099268 1.308617 -6.326883 4.580120 3.356379 -5.765493 -3.092469 -3.811477 0.000000 0.000000 0.000000 
1399.023682 -0.127840 1121.036987 14.924935 0.882740 1.351059 0.438467 1.853603 2.879931 0.351054 -0.113339 -0.510000 0.412550 0.451365 0.468618 -1.092586 3.775392 3.256600 0.000000 0.000000 0.000000 0.059160 2.281873 4.401420 21.475826 0.327580 -3.374831 -173.049380 57.636005 -164.367360 0.000000 0.000000 0.000000 -5.952718 15.481924 -4.228809 -17.141196 3.598653 1.146913 56.592273 -19.709645 112.070653 0.000000 0.000000 0.000000 -7.422990 0.787255 -3.492619 -7.337582 -0.360820 -0.000510 -7.145943 -2.602806 -2.334444 0.000000 0.000000 0.000000 -6.347081 -3.996233 1.267107 -6.300393 4.615477 3.360690 -5.735460 -3.109517 -3.803688 0.000000 0.000000 0.000000 
